#!OML:ASF E:\Style4\Style4.ASF
:FULLY-SPECIFIED
:DEGREES
2150
root 1.34922 17.3271 -1.71978 4.33724 -31.7694 3.95285
lowerback 17.2136 -1.87333 -3.0548
upperback 9.96624 -3.08586 -0.0711241
thorax 1.17171 -1.76197 2.1239
lowerneck 1.79511 6.54099 -2.4283
upperneck -0.714981 8.55605 -8.7091
head -0.226688 4.33102 -2.36758
rclavicle -9.90693e-014 3.55825e-014
rhumerus 48.6571 3.5444 -54.6804
rradius 41.1245
rwrist 0.875246
rhand 36.9639 3.16988
rfingers 7.12502
rthumb 59.8343 -10.7832
lclavicle -9.90693e-014 3.55825e-014
lhumerus 53.2131 -22.6256 38.4922
lradius 61.9557
lwrist 1.86526
lhand 38.7925 39.157
lfingers 7.12502
lthumb 61.3869 51.3939
rfemur -36.6369 11.8634 10.2763
rtibia 42.0422
rfoot -12.9533 -2.7622
rtoes -19.8667
lfemur -27.8237 20.0402 -27.6825
ltibia 44.3175
lfoot -26.498 15.3392
ltoes -9.79027
2151
root 1.34292 17.332 -1.7215 4.35225 -31.7552 3.95801
lowerback 17.2037 -1.85447 -3.03287
upperback 9.91929 -3.05699 -0.0662352
thorax 1.12332 -1.74463 2.11349
lowerneck 1.75794 6.51057 -2.39671
upperneck -0.50085 8.53347 -8.79033
head -0.148998 4.31004 -2.39216
rclavicle -1.19768e-014 4.27387e-015
rhumerus 48.9079 3.34342 -54.5234
rradius 41.3131
rwrist 0.692717
rhand 36.8802 2.9674
rfingers 7.12502
rthumb 59.7626 -11.0598
lclavicle -1.19768e-014 4.27387e-015
lhumerus 53.3862 -22.2967 38.332
lradius 61.8567
lwrist 1.79766
lhand 38.5833 38.9193
lfingers 7.12502
lthumb 61.2108 51.3625
rfemur -36.5989 11.9666 10.2751
rtibia 41.9445
rfoot -12.8702 -2.91431
rtoes -20.2536
lfemur -27.7444 20.099 -27.6759
ltibia 44.1804
lfoot -26.3963 15.2948
ltoes -10.0284
2152
root 1.33775 17.337 -1.72318 4.42362 -31.7184 3.92217
lowerback 17.1744 -1.85199 -3.00181
upperback 9.84601 -3.0467 -0.0387975
thorax 1.05857 -1.73586 2.1244
lowerneck 1.80001 6.49497 -2.38178
upperneck -0.377578 8.51873 -8.88041
head -0.113245 4.29849 -2.42258
rclavicle -7.98866e-014 4.68138e-014
rhumerus 49.2695 3.20103 -54.3151
rradius 41.3427
rwrist 0.549992
rhand 36.6629 3.09084
rfingers 7.12502
rthumb 59.5761 -11.1269
lclavicle -7.98866e-014 4.68138e-014
lhumerus 53.47 -21.8171 38.4105
lradius 61.763
lwrist 1.21557
lhand 39.369 38.8823
lfingers 7.12502
lthumb 61.8701 50.5369
rfemur -36.6098 12.0342 10.2985
rtibia 41.8782
rfoot -12.8414 -3.02054
rtoes -20.2516
lfemur -27.7758 20.0727 -27.6398
ltibia 44.1068
lfoot -26.2576 15.3954
ltoes -10.6377
2153
root 1.332 17.3393 -1.72495 4.45669 -31.6821 3.88116
lowerback 17.1673 -1.84765 -3.01153
upperback 9.78258 -3.04039 0.0159993
thorax 0.997466 -1.73203 2.18817
lowerneck 1.90777 6.49196 -2.43832
upperneck -0.313873 8.51049 -8.92916
head -0.112019 4.29404 -2.43177
rclavicle -7.36e-014 2.70596e-014
rhumerus 49.6713 3.1078 -54.1305
rradius 41.4218
rwrist 0.398402
rhand 36.4736 3.11428
rfingers 7.12502
rthumb 59.4133 -11.2675
lclavicle -7.36e-014 2.70596e-014
lhumerus 53.5417 -21.3408 38.5153
lradius 61.742
lwrist 0.680959
lhand 40.1463 39.2388
lfingers 7.12502
lthumb 62.5164 50.0745
rfemur -36.6005 12.1039 10.336
rtibia 41.8694
rfoot -12.8482 -3.06525
rtoes -20.0101
lfemur -27.7644 20.0281 -27.5723
ltibia 44.0638
lfoot -26.3229 15.3345
ltoes -10.2711
2154
root 1.32561 17.3389 -1.72461 4.38211 -31.6324 3.87131
lowerback 17.1678 -1.84196 -3.03929
upperback 9.78329 -3.03623 0.0622335
thorax 1.00227 -1.73257 2.25167
lowerneck 1.98129 6.4966 -2.4998
upperneck -0.249852 8.51443 -8.98189
head -0.104468 4.29493 -2.43999
rclavicle -6.27414e-014 1.23743e-014
rhumerus 50.1368 2.9912 -53.9036
rradius 41.5359
rwrist 0.166486
rhand 36.3984 2.86711
rfingers 7.12502
rthumb 59.3485 -11.5794
lclavicle -6.27414e-014 1.23743e-014
lhumerus 53.7478 -20.8898 38.4736
lradius 61.595
lwrist 0.694403
lhand 39.9911 39.3597
lfingers 7.12502
lthumb 62.3878 50.3622
rfemur -36.4937 12.1203 10.3858
rtibia 41.9003
rfoot -12.8694 -3.12958
rtoes -20.0918
lfemur -27.6441 20.0122 -27.5057
ltibia 44.0634
lfoot -26.378 15.2327
ltoes -9.92532
2155
root 1.31986 17.3371 -1.72525 4.29417 -31.5641 3.94309
lowerback 17.2714 -1.84144 -3.08358
upperback 9.69436 -3.04363 0.071869
thorax 0.856783 -1.73358 2.29541
lowerneck 2.08517 6.50416 -2.60604
upperneck -0.139755 8.52269 -8.96335
head -0.0925999 4.29634 -2.4176
rclavicle -2.07357e-014 5.57839e-015
rhumerus 50.4542 2.89811 -53.7923
rradius 41.6262
rwrist 0.165455
rhand 36.1671 3.10409
rfingers 7.12502
rthumb 59.1492 -11.5394
lclavicle -2.07357e-014 5.57839e-015
lhumerus 53.8731 -20.4718 38.5212
lradius 61.2779
lwrist 0.738189
lhand 39.5022 38.3233
lfingers 7.12502
lthumb 61.9813 49.8405
rfemur -36.4658 12.1094 10.3536
rtibia 41.9864
rfoot -12.8476 -3.26135
rtoes -20.4879
lfemur -27.587 19.9537 -27.5263
ltibia 44.0996
lfoot -26.3854 15.2013
ltoes -9.74876
2156
root 1.31055 17.3362 -1.72569 4.26622 -31.4551 3.97898
lowerback 17.164 -1.80355 -3.04973
upperback 9.67605 -2.98469 0.075403
thorax 0.886906 -1.70235 2.2668
lowerneck 2.12997 6.44692 -2.65239
upperneck 0.00123561 8.45292 -8.9099
head -0.0628771 4.25616 -2.39077
rclavicle 7.22147e-016 1.29971e-014
rhumerus 50.7142 2.59462 -53.7069
rradius 41.7081
rwrist 0.193608
rhand 35.7366 3.43571
rfingers 7.12502
rthumb 58.777 -11.5674
lclavicle 7.22147e-016 1.29971e-014
lhumerus 54.1965 -20.0674 38.5832
lradius 60.9788
lwrist 0.730724
lhand 38.6503 37.3174
lfingers 7.12502
lthumb 61.2672 49.6948
rfemur -36.4768 12.1169 10.3464
rtibia 42.1182
rfoot -12.9002 -3.41714
rtoes -20.6713
lfemur -27.622 19.8659 -27.5088
ltibia 44.1881
lfoot -26.4097 15.2164
ltoes -10.017
2157
root 1.29857 17.3316 -1.72664 4.25216 -31.3214 3.93053
lowerback 17.1034 -1.78252 -2.97893
upperback 9.65727 -2.94395 0.0923544
thorax 0.892276 -1.67879 2.23655
lowerneck 2.15745 6.40683 -2.64254
upperneck 0.121003 8.40723 -8.88929
head -0.0321107 4.2287 -2.38395
rclavicle -1.32689e-014 3.82164e-014
rhumerus 51.0072 2.38529 -53.5013
rradius 41.7949
rwrist -0.0743862
rhand 35.2608 3.58841
rfingers 7.12502
rthumb 58.3641 -11.8017
lclavicle -1.32689e-014 3.82164e-014
lhumerus 54.4965 -19.6625 38.6471
lradius 60.7553
lwrist 0.555889
lhand 37.408 36.9564
lfingers 7.12502
lthumb 60.214 50.5101
rfemur -36.4685 12.1668 10.4221
rtibia 42.2956
rfoot -12.9769 -3.56212
rtoes -20.8309
lfemur -27.6487 19.7815 -27.4001
ltibia 44.3205
lfoot -26.3916 15.2893
ltoes -10.39
2158
root 1.28568 17.3215 -1.72876 4.13226 -31.2065 3.9667
lowerback 17.2028 -1.75517 -3.05909
upperback 9.59012 -2.92104 0.127271
thorax 0.774056 -1.6678 2.32124
lowerneck 2.29627 6.39465 -2.68053
upperneck 0.172933 8.38451 -8.89111
head -0.0416288 4.21806 -2.38251
rclavicle -3.25883e-014 2.55687e-014
rhumerus 51.268 2.28736 -53.2891
rradius 41.9208
rwrist -0.334579
rhand 35.0243 3.8009
rfingers 7.12502
rthumb 58.1583 -11.7776
lclavicle -3.25883e-014 2.55687e-014
lhumerus 54.6947 -19.2686 38.7157
lradius 60.7289
lwrist 0.274745
lhand 36.4688 37.2632
lfingers 7.12502
lthumb 59.4092 51.6491
rfemur -36.4414 12.2093 10.44
rtibia 42.5194
rfoot -13.0949 -3.6701
rtoes -20.7764
lfemur -27.6094 19.7479 -27.3544
ltibia 44.4587
lfoot -26.2997 15.3685
ltoes -11.0089
2159
root 1.27411 17.3114 -1.72843 4.01449 -31.0656 4.04037
lowerback 17.2314 -1.74881 -3.14135
upperback 9.52764 -2.92345 0.155295
thorax 0.698766 -1.66983 2.40047
lowerneck 2.4604 6.40204 -2.76698
upperneck 0.219107 8.3841 -8.85923
head -0.0599698 4.21919 -2.36316
rclavicle 8.34647e-014 -1.96051e-014
rhumerus 51.5254 2.17683 -53.2305
rradius 42.0474
rwrist -0.36
rhand 34.8877 3.94892
rfingers 7.12502
rthumb 58.0393 -11.7372
lclavicle 8.34647e-014 -1.96051e-014
lhumerus 54.8674 -18.9526 38.7578
lradius 60.8567
lwrist 0.308172
lhand 35.3948 38.3676
lfingers 7.12502
lthumb 58.4806 53.6499
rfemur -36.4282 12.2038 10.4149
rtibia 42.7621
rfoot -13.2105 -3.81476
rtoes -20.7727
lfemur -27.5735 19.6343 -27.3434
ltibia 44.5886
lfoot -26.2917 15.3567
ltoes -11.152
